<?xml version="1.0" encoding="utf-8"?>
<!-- Generator: Adobe Illustrator 18.0.0, SVG Export Plug-In . SVG Version: 6.00 Build 0)  -->
<!DOCTYPE svg PUBLIC "-//W3C//DTD SVG 1.1//EN" "http://www.w3.org/Graphics/SVG/1.1/DTD/svg11.dtd">
<svg version="1.1" id="Layer_1" xmlns="http://www.w3.org/2000/svg" xmlns:xlink="http://www.w3.org/1999/xlink" x="0px" y="0px"
	 viewBox="0 0 400 400" enable-background="new 0 0 400 400" xml:space="preserve">
<g>
	<rect x="1.9" fill="#0074D9" width="397.7" height="399"/>
</g>
<g display="none">
	<path display="inline" fill="#FFFFFF" d="M273.9,284.3c-23.6,0-45.2-7.9-60.6-22.3c-16.1-14.9-24.5-35.3-24.5-58.9
		c0-21.6,7.4-40.9,22-57.4l6.9-7.9c16.8-19.2,37-27.4,44.9-30l0.3-0.1l2.6,2l-0.4,0.4l0,0l-0.4,0.4l0,0l-0.4,0.4l0,0l-0.4,0.4l0,0
		l-0.4,0.4l0,0l-0.4,0.4l0,0l-0.4,0.4l0,0l-0.4,0.4l0,0l-0.4,0.4l0,0l-0.4,0.4l0,0l-0.4,0.4l0,0l-0.4,0.4l0,0l-0.4,0.4l0,0l-0.4,0.4
		l0,0l-0.3,0.4l0,0l-0.4,0.4l0,0l-0.4,0.4l0,0l-0.4,0.4l0,0l-0.4,0.4l0,0l-0.4,0.4l0,0L258,118l0,0l-0.4,0.4
		c-2.4,2.1-4.7,4.3-6.8,6.5c-12.7,16.3-18.9,34.8-18.9,56.7c0,20.7,4.8,36.8,14.3,48.1l8.3-4.2c0.6-2.2,0.8-4.9,0.8-8.7v-73.6
		l-8.4,4.5l-2.8-5.6l0.4-0.2l-0.1-0.2l0.4-0.2l-0.1-0.2l0.4-0.2l-0.1-0.2l0.4-0.2l-0.1-0.2l0.4-0.2l-0.1-0.2l0.4-0.2l-0.1-0.2
		l0.4-0.2l-0.1-0.2l0.4-0.2l-0.1-0.2l0.4-0.2l-0.1-0.2l0.4-0.2l-0.1-0.2l0.4-0.2l-0.1-0.2l0.4-0.2l-0.1-0.2l0.4-0.2l-0.1-0.2
		l0.4-0.2l-0.1-0.2l0.4-0.2l-0.1-0.2l0.4-0.2l-0.1-0.2l0.4-0.2l-0.1-0.2l0.4-0.2l-0.1-0.2l0.4-0.2l-0.1-0.2l0.4-0.2l-0.1-0.2
		l0.4-0.2l-0.1-0.2l0.4-0.2c22.8-11.8,45.8-25.7,59.9-36.1l0.5-0.3l0.3,0.5c5.8,10.1,13.4,15.5,21.9,15.5c3.1,0,7-0.1,10.1-1
		l0.3-0.1l1.9,1.9l-0.1,0.3c-2,5.5-4.8,10.1-8.2,13.9l-2.9,3.3c-0.1,0.1-0.1,0.2-0.2,0.2c0,0-0.6,0.7-0.7,0.8c0,0-1.3,1.5-1.4,1.6
		l-1.7,2c-5.1,5.7-11.5,9-17.5,9c-0.5,0-0.9,0-1.4,0v100.3c13.6-3.3,24.9-9.9,34.7-20.1l0.4-0.4l2.3,2.3l-0.1,0.3
		c-3.5,9.3-8.3,17.5-14.3,24.6l-6.9,7.9C315,275.9,296.1,284.3,273.9,284.3z M253.6,236.7c9.6,7.3,22.1,11,37.2,11
		c3.4,0,6.8-0.1,9.9-0.4V142c-2.1-1-4-2.2-6-3.8v57.9c0,7.7-0.7,12.6-4.5,16.6l-0.1,0.1c-0.1,0.1-0.2,0.2-0.3,0.3l-0.1,0.1
		c-0.1,0.1-0.2,0.2-0.3,0.3l-0.1,0.1c-0.1,0.1-0.2,0.2-0.2,0.3l-0.1,0.1c-0.1,0.1-0.2,0.2-0.3,0.3l-0.1,0.1
		c-0.1,0.1-0.2,0.2-0.2,0.3l-0.1,0.1c-0.1,0.1-0.2,0.2-0.3,0.3l-0.1,0.1c-0.1,0.1-0.2,0.2-0.2,0.3l-0.1,0.1
		c-0.1,0.1-0.2,0.2-0.2,0.3l-0.1,0.1c-0.1,0.1-0.2,0.2-0.3,0.3l-0.1,0.1c-0.1,0.1-0.2,0.2-0.3,0.3l-0.1,0.1
		c-0.1,0.1-0.2,0.2-0.2,0.3c0,0-0.3,0.3-0.3,0.4l-0.1,0.1c-0.1,0.1-0.2,0.2-0.2,0.3l-0.1,0.1c-0.1,0.1-0.2,0.2-0.2,0.3l-0.1,0.1
		c-0.1,0.1-0.2,0.2-0.2,0.3l-0.1,0.1c-0.1,0.1-0.2,0.2-0.3,0.3l-0.1,0.1c-0.1,0.1-0.2,0.2-0.3,0.3l-0.1,0.1
		c-0.1,0.1-0.2,0.2-0.3,0.3l-0.1,0.1c-0.1,0.1-0.2,0.2-0.3,0.3l-0.1,0.1c-0.1,0.1-0.2,0.2-0.3,0.3c-1.7,2-4.1,3.7-7.4,5.3
		L253.6,236.7z"/>
	<path display="inline" fill="#0071BC" d="M312,97.8c6,10.4,13.7,15.7,22.3,15.7c3,0,7-0.1,10.2-1.1l1.5,1.5
		c-2.1,5.7-4.9,10.2-8.1,13.7c-0.1,0.1-0.2,0.3-0.3,0.4c-0.1,0.1-0.2,0.3-0.3,0.4c-0.1,0.1-0.2,0.3-0.3,0.4
		c-0.1,0.1-0.2,0.3-0.3,0.4c-0.1,0.1-0.2,0.3-0.3,0.4c-0.1,0.1-0.2,0.3-0.3,0.4c-0.1,0.1-0.2,0.3-0.3,0.4c-0.1,0.1-0.2,0.3-0.3,0.4
		c-0.1,0.1-0.2,0.3-0.3,0.4c-0.1,0.1-0.2,0.3-0.3,0.4c-0.1,0.1-0.2,0.3-0.3,0.4c-0.1,0.1-0.2,0.3-0.3,0.4c-0.1,0.1-0.2,0.3-0.3,0.4
		c-0.1,0.1-0.2,0.3-0.3,0.4c-0.1,0.1-0.2,0.3-0.3,0.4c-0.1,0.1-0.2,0.3-0.3,0.4c-0.1,0.1-0.2,0.3-0.3,0.4c-0.1,0.1-0.2,0.3-0.3,0.4
		c-0.1,0.1-0.2,0.3-0.3,0.4c-0.1,0.1-0.2,0.3-0.3,0.4c-5.3,6-11.7,8.8-17.1,8.8c-0.6,0-1.3,0-1.9-0.1v101.5
		c17.6-4.2,28.6-13.2,35.5-20.4l1.7,1.7c-3.2,8.6-7.9,17-14.2,24.4c-0.1,0.1-0.2,0.3-0.3,0.4c-0.1,0.1-0.2,0.3-0.3,0.4
		c-0.1,0.1-0.2,0.3-0.3,0.4c-0.1,0.1-0.2,0.3-0.3,0.4c-0.1,0.1-0.2,0.3-0.3,0.4c-0.1,0.1-0.2,0.3-0.3,0.4c-0.1,0.1-0.2,0.3-0.3,0.4
		c-0.1,0.1-0.2,0.3-0.3,0.4c-0.1,0.1-0.2,0.3-0.3,0.4c-0.1,0.1-0.2,0.3-0.3,0.4c-0.1,0.1-0.2,0.3-0.3,0.4c-0.1,0.1-0.2,0.3-0.3,0.4
		c-0.1,0.1-0.2,0.3-0.3,0.4c-0.1,0.1-0.2,0.3-0.3,0.4c-0.1,0.1-0.2,0.3-0.3,0.4c-0.1,0.1-0.2,0.3-0.3,0.4c-0.1,0.1-0.2,0.3-0.3,0.4
		c-0.1,0.1-0.2,0.3-0.3,0.4c-0.1,0.1-0.2,0.3-0.3,0.4c-0.1,0.1-0.2,0.3-0.3,0.4c-11.8,14-29.5,24.3-54.2,24.3
		c-47.9,0-84.7-32.1-84.7-80.6c0-23.8,9.3-42.8,21.9-57.1c0.1-0.1,0.2-0.3,0.3-0.4c0.1-0.1,0.2-0.3,0.3-0.4c0.1-0.1,0.2-0.3,0.3-0.4
		c0.1-0.1,0.2-0.3,0.3-0.4c0.1-0.1,0.2-0.3,0.3-0.4c0.1-0.1,0.2-0.3,0.3-0.4c0.1-0.1,0.2-0.3,0.3-0.4c0.1-0.1,0.2-0.3,0.3-0.4
		c0.1-0.1,0.2-0.3,0.3-0.4c0.1-0.1,0.2-0.3,0.3-0.4c0.1-0.1,0.2-0.3,0.3-0.4c0.1-0.1,0.2-0.3,0.3-0.4c0.1-0.1,0.2-0.3,0.3-0.4
		c0.1-0.1,0.2-0.3,0.3-0.4c0.1-0.1,0.2-0.3,0.3-0.4c0.1-0.1,0.2-0.3,0.3-0.4c0.1-0.1,0.2-0.3,0.3-0.4c0.1-0.1,0.2-0.3,0.3-0.4
		c0.1-0.1,0.2-0.3,0.3-0.4c0.1-0.1,0.2-0.3,0.3-0.4c13.4-15.3,30.7-25.3,44.6-29.9l1.9,1.5c-0.1,0.1-0.3,0.2-0.4,0.4l0,0
		c-0.1,0.1-0.3,0.2-0.4,0.4l0,0c-0.1,0.1-0.3,0.2-0.4,0.4l0,0c-0.1,0.1-0.3,0.2-0.4,0.4l0,0c-0.1,0.1-0.3,0.2-0.4,0.4l0,0
		c-0.1,0.1-0.3,0.2-0.4,0.4l0,0c-0.1,0.1-0.3,0.2-0.4,0.4l0,0c-0.1,0.1-0.3,0.2-0.4,0.4l0,0c-0.1,0.1-0.3,0.2-0.4,0.4l0,0
		c-0.1,0.1-0.3,0.2-0.4,0.4l0,0c-0.1,0.1-0.3,0.2-0.4,0.4l0,0c-0.1,0.1-0.3,0.2-0.4,0.4l0,0c-0.1,0.1-0.3,0.2-0.4,0.4l0,0
		c-0.1,0.1-0.3,0.2-0.4,0.4l0,0c-0.1,0.1-0.3,0.2-0.4,0.4l0,0c-0.1,0.1-0.3,0.2-0.4,0.4l0,0c-0.1,0.1-0.3,0.2-0.4,0.4l0,0
		c-0.1,0.1-0.3,0.2-0.4,0.4l0,0c-0.1,0.1-0.3,0.2-0.4,0.4l0,0c-0.1,0.1-0.3,0.2-0.4,0.4l0,0c-0.1,0.1-0.3,0.2-0.4,0.4l0,0
		c-2.3,2-4.6,4.2-6.9,6.6c-10.5,13.5-19.1,31.7-19.1,57c0,21.2,5.1,37.5,14.7,48.7l8.7-4.5c0,0,0.1,0,0.1-0.1c0.7-2.4,0.9-5.3,0.9-9
		v-74.5l-8.7,4.7l-2.3-4.7c0.1-0.1,0.3-0.2,0.4-0.2l-0.1-0.2c0.1-0.1,0.3-0.2,0.4-0.2l-0.1-0.2c0.1-0.1,0.3-0.2,0.4-0.2l-0.1-0.2
		c0.1-0.1,0.3-0.2,0.4-0.2l-0.1-0.2c0.1-0.1,0.3-0.2,0.4-0.2l-0.1-0.2c0.1-0.1,0.3-0.2,0.4-0.2l-0.1-0.2c0.1-0.1,0.3-0.2,0.4-0.2
		l-0.1-0.2c0.1-0.1,0.3-0.2,0.4-0.2l-0.1-0.2c0.1-0.1,0.3-0.2,0.4-0.2l-0.1-0.2c0.1-0.1,0.3-0.2,0.4-0.2l-0.1-0.2
		c0.1-0.1,0.3-0.2,0.4-0.2l-0.1-0.2c0.1-0.1,0.3-0.2,0.4-0.2l-0.1-0.2c0.1-0.1,0.3-0.2,0.4-0.2l-0.1-0.2c0.1-0.1,0.3-0.2,0.4-0.2
		l-0.1-0.2c0.1-0.1,0.3-0.2,0.4-0.2l-0.1-0.2c0.1-0.1,0.3-0.2,0.4-0.2l-0.1-0.2c0.1-0.1,0.3-0.2,0.4-0.2l-0.1-0.2
		c0.1-0.1,0.3-0.2,0.4-0.2l-0.1-0.2c0.1-0.1,0.3-0.2,0.4-0.2l-0.1-0.2c0.1-0.1,0.3-0.2,0.4-0.2l-0.1-0.2c0.1-0.1,0.3-0.2,0.4-0.2
		L252,134C272.8,123.2,296.5,109.3,312,97.8 M290.8,248.2c3.7,0,7.1-0.2,10.4-0.5V141.7c-2.4-1.1-4.7-2.6-7-4.5v58.9
		c0,7.3-0.7,12.3-4.4,16.3c-0.1,0.1-0.2,0.3-0.3,0.4c-0.1,0.1-0.2,0.3-0.3,0.4c-0.1,0.1-0.2,0.3-0.3,0.4c-0.1,0.1-0.2,0.3-0.3,0.4
		c-0.1,0.1-0.2,0.3-0.3,0.4c-0.1,0.1-0.2,0.3-0.3,0.4c-0.1,0.1-0.2,0.3-0.3,0.4c-0.1,0.1-0.2,0.3-0.3,0.4c-0.1,0.1-0.2,0.3-0.3,0.4
		c-0.1,0.1-0.2,0.3-0.3,0.4c-0.1,0.1-0.2,0.3-0.3,0.4c-0.1,0.1-0.2,0.3-0.3,0.4c-0.1,0.1-0.2,0.3-0.3,0.4c-0.1,0.1-0.2,0.3-0.3,0.4
		c-0.1,0.1-0.2,0.3-0.3,0.4c-0.1,0.1-0.2,0.3-0.3,0.4c-0.1,0.1-0.2,0.3-0.3,0.4c-0.1,0.1-0.2,0.3-0.3,0.4c-0.1,0.1-0.2,0.3-0.3,0.4
		c-0.1,0.1-0.2,0.3-0.3,0.4c-1.7,1.9-4,3.6-7.3,5.2l-23,11.1C262.3,244.3,275.2,248.2,290.8,248.2 M312.3,96.3l-0.9,0.7
		c-14.1,10.4-37,24.3-59.9,36.1l-0.9,0.5l0.1,0.2l-0.4,0.2l0.1,0.2l-0.4,0.2l0.1,0.2l-0.4,0.2l0.1,0.2l-0.4,0.2l0.1,0.2l-0.4,0.2
		l0.1,0.2l-0.4,0.2l0.1,0.2l-0.4,0.2l0.1,0.2l-0.4,0.2l0.1,0.2l-0.4,0.2l0.1,0.2l-0.4,0.2l0.1,0.2l-0.4,0.2l0.1,0.2l-0.4,0.2
		l0.1,0.2l-0.4,0.2l0.1,0.2l-0.4,0.2l0.1,0.2l-0.4,0.2l0.1,0.2l-0.4,0.2l0.1,0.2l-0.4,0.2l0.1,0.2l-0.4,0.2l0.1,0.2l-0.4,0.2
		l0.1,0.2l-0.4,0.2l0.1,0.2l-0.4,0.2l0.4,0.9l2.3,4.7l0.5,0.9l0.9-0.5l7.2-3.9v72.8c0,3.6-0.2,6.3-0.8,8.4l-7.7,4
		c-9.2-11.2-13.9-27.1-13.9-47.5c0-21.7,6.2-40.1,18.8-56.4c2.1-2.2,4.4-4.4,6.8-6.5l0.9-0.8l-0.1,0l0.4-0.4l-0.1,0l0.4-0.4l-0.1,0
		l0.4-0.4l-0.1,0l0.4-0.4l-0.1,0l0.4-0.4l-0.1,0l0.4-0.4l-0.1,0l0.4-0.4l-0.1,0l0.4-0.4l-0.1,0l0.4-0.4l-0.1,0l0.4-0.4l-0.1,0
		l0.4-0.4l-0.1,0l0.4-0.4l-0.1,0l0.4-0.4l-0.1,0l0.4-0.4l-0.1,0l0.4-0.4l-0.1,0l0.4-0.4l-0.1,0l0.4-0.4l-0.1,0l0.4-0.4l-0.1,0
		l0.4-0.4l-0.1,0l0.4-0.4l-0.1,0l0.4-0.4l-0.9-0.7l-1.9-1.5l-0.4-0.3l-0.5,0.2c-7.9,2.6-28.2,10.9-45.1,30.2l-0.2,0.2l-0.1,0.2
		l-0.2,0.2l-0.1,0.2l-0.2,0.2l-0.1,0.2l-0.2,0.2l-0.1,0.2l-0.2,0.2l-0.1,0.2l-0.2,0.2l-0.1,0.2l-0.2,0.2l-0.1,0.2l-0.2,0.2l-0.1,0.2
		l-0.2,0.2l-0.1,0.2l-0.2,0.2l-0.1,0.2l-0.2,0.2l-0.1,0.2l-0.2,0.2l-0.1,0.2l-0.2,0.2l-0.1,0.2l-0.2,0.2l-0.1,0.2l-0.2,0.2l-0.1,0.2
		l-0.2,0.2l-0.1,0.2l-0.2,0.2l-0.1,0.2l-0.2,0.2l-0.1,0.2l-0.2,0.2l-0.1,0.2l-0.2,0.2l-0.1,0.1c-14.7,16.6-22.1,36-22.1,57.7
		c0,23.8,8.5,44.2,24.7,59.2c15.6,14.4,37.2,22.4,61,22.4c22.4,0,41.4-8.5,55-24.6l0.1-0.2c0.1-0.1,0.1-0.2,0.2-0.2l0.1-0.2
		c0.1-0.1,0.1-0.2,0.2-0.2l0.1-0.2c0.1-0.1,0.1-0.2,0.2-0.2l0.1-0.2c0.1-0.1,0.1-0.2,0.2-0.2l0.1-0.2c0.1-0.1,0.1-0.2,0.2-0.2
		l0.1-0.2c0.1-0.1,0.1-0.2,0.2-0.2l0.1-0.2c0.1-0.1,0.1-0.2,0.2-0.2l0.1-0.2c0.1-0.1,0.1-0.2,0.2-0.2l0.1-0.2
		c0.1-0.1,0.1-0.2,0.2-0.2l0.1-0.2c0.1-0.1,0.1-0.2,0.2-0.2l0.1-0.2c0.1-0.1,0.1-0.2,0.2-0.2l0.1-0.2c0.1-0.1,0.1-0.2,0.2-0.2
		l0.1-0.2c0.1-0.1,0.1-0.2,0.2-0.2l0.1-0.2c0.1-0.1,0.1-0.2,0.2-0.2l0.1-0.2c0.1-0.1,0.1-0.2,0.2-0.2l0.1-0.2
		c0.1-0.1,0.1-0.2,0.2-0.2l0.1-0.2c0.1-0.1,0.1-0.2,0.2-0.2l0.1-0.2c0.1-0.1,0.1-0.2,0.2-0.2l0.1-0.2c0.1-0.1,0.1-0.2,0.2-0.2
		l0.1-0.2c0.1-0.1,0.1-0.2,0.2-0.2c6.1-7.1,10.9-15.4,14.4-24.7l0.2-0.6l-0.5-0.5l-1.7-1.7l-0.7-0.7l-0.7,0.7
		c-9.5,10-20.6,16.5-33.8,19.8v-99.2c0.3,0,0.6,0,0.9,0c6.2,0,12.7-3.3,17.9-9.2c0.1-0.1,0.1-0.2,0.2-0.2l0.1-0.2
		c0.1-0.1,0.1-0.2,0.2-0.2l0.1-0.2c0.1-0.1,0.1-0.2,0.2-0.2l0.1-0.2c0.1-0.1,0.1-0.2,0.2-0.2l0.1-0.2c0.1-0.1,0.1-0.2,0.2-0.2
		l0.1-0.2c0.1-0.1,0.1-0.2,0.2-0.2l0.1-0.2c0.1-0.1,0.1-0.2,0.2-0.2l0.1-0.2c0.1-0.1,0.1-0.2,0.2-0.2l0.1-0.2
		c0.1-0.1,0.1-0.2,0.2-0.2l0.1-0.2c0.1-0.1,0.1-0.2,0.2-0.2l0.1-0.2c0.1-0.1,0.1-0.2,0.2-0.2l0.1-0.2c0.1-0.1,0.1-0.2,0.2-0.2
		l0.1-0.2c0.1-0.1,0.1-0.2,0.2-0.2l0.1-0.2c0.1-0.1,0.1-0.2,0.2-0.2l0.1-0.2c0.1-0.1,0.1-0.2,0.2-0.2l0.1-0.2
		c0.1-0.1,0.1-0.2,0.2-0.2l0.1-0.2c0.1-0.1,0.1-0.2,0.2-0.2l0.1-0.2c0.1-0.1,0.1-0.2,0.2-0.2l0.1-0.2c0.1-0.1,0.1-0.2,0.2-0.2
		l0.1-0.2c0.1-0.1,0.1-0.2,0.2-0.2l0.1-0.2c3.5-3.8,6.3-8.5,8.3-14l0.2-0.6l-0.5-0.5l-1.5-1.5l-0.4-0.4l-0.6,0.2c-3,0.9-6.9,1-9.9,1
		c-8.4,0-15.8-5.3-21.5-15.2L312.3,96.3L312.3,96.3z M254.5,236.8l21.5-10.4c3.3-1.6,5.8-3.4,7.6-5.4c0.1-0.1,0.2-0.2,0.2-0.3
		l0.1-0.1c0.1-0.1,0.2-0.2,0.2-0.3l0.1-0.1c0.1-0.1,0.2-0.2,0.2-0.3l0.1-0.1c0.1-0.1,0.2-0.2,0.2-0.3l0.1-0.1
		c0.1-0.1,0.2-0.2,0.2-0.3l0.1-0.1c0.1-0.1,0.2-0.2,0.2-0.3l0.1-0.1c0.1-0.1,0.2-0.2,0.2-0.3l0.1-0.1c0.1-0.1,0.2-0.2,0.2-0.3
		l0.1-0.1c0.1-0.1,0.2-0.2,0.2-0.3l0.1-0.1c0.1-0.1,0.2-0.2,0.2-0.3l0.1-0.1c0.1-0.1,0.2-0.2,0.2-0.3l0.1-0.1
		c0.1-0.1,0.2-0.2,0.2-0.3l0.1-0.1c0.1-0.1,0.2-0.2,0.2-0.3l0.1-0.1c0.1-0.1,0.2-0.2,0.2-0.3l0.1-0.1c0.1-0.1,0.2-0.2,0.2-0.3
		l0.1-0.1c0.1-0.1,0.2-0.2,0.2-0.3l0.1-0.1c0.1-0.1,0.2-0.2,0.2-0.3l0.1-0.1c0.1-0.1,0.2-0.2,0.2-0.3l0.1-0.1
		c0.1-0.1,0.2-0.2,0.2-0.3l0.1-0.1c0.1-0.1,0.2-0.2,0.2-0.3l0.1-0.1c3.8-4.1,4.6-9.3,4.6-16.9v-56.9c1.6,1.2,3.3,2.2,5,3.1v104.5
		c-3,0.3-6.1,0.4-9.4,0.4C276.1,247.2,263.9,243.7,254.5,236.8L254.5,236.8z"/>
</g>
<g display="none">
	
		<line display="inline" fill="none" stroke="#FFFFFF" stroke-width="3" stroke-miterlimit="10" x1="-125" y1="511" x2="561" y2="204"/>
	
		<line display="inline" fill="none" stroke="#FFFFFF" stroke-width="3" stroke-miterlimit="10" x1="-125" y1="503" x2="561" y2="196"/>
	
		<line display="inline" fill="none" stroke="#FFFFFF" stroke-width="3" stroke-miterlimit="10" x1="-125" y1="494.9" x2="561" y2="187.9"/>
	
		<line display="inline" fill="none" stroke="#FFFFFF" stroke-width="3" stroke-miterlimit="10" x1="-125" y1="486.9" x2="561" y2="179.9"/>
	
		<line display="inline" fill="none" stroke="#FFFFFF" stroke-width="3" stroke-miterlimit="10" x1="-125" y1="478.8" x2="561" y2="171.8"/>
	
		<line display="inline" fill="none" stroke="#FFFFFF" stroke-width="3" stroke-miterlimit="10" x1="-125" y1="470.8" x2="561" y2="163.8"/>
	
		<line display="inline" fill="none" stroke="#FFFFFF" stroke-width="3" stroke-miterlimit="10" x1="-125" y1="462.7" x2="561" y2="155.7"/>
	
		<line display="inline" fill="none" stroke="#FFFFFF" stroke-width="3" stroke-miterlimit="10" x1="-125" y1="454.7" x2="561" y2="147.7"/>
	
		<line display="inline" fill="none" stroke="#FFFFFF" stroke-width="3" stroke-miterlimit="10" x1="-125" y1="446.7" x2="561" y2="139.7"/>
	
		<line display="inline" fill="none" stroke="#FFFFFF" stroke-width="3" stroke-miterlimit="10" x1="-125" y1="438.6" x2="561" y2="131.6"/>
	
		<line display="inline" fill="none" stroke="#FFFFFF" stroke-width="3" stroke-miterlimit="10" x1="-125" y1="430.6" x2="561" y2="123.6"/>
	
		<line display="inline" fill="none" stroke="#FFFFFF" stroke-width="3" stroke-miterlimit="10" x1="-125" y1="422.5" x2="561" y2="115.5"/>
	
		<line display="inline" fill="none" stroke="#FFFFFF" stroke-width="3" stroke-miterlimit="10" x1="-125" y1="414.5" x2="561" y2="107.5"/>
	
		<line display="inline" fill="none" stroke="#FFFFFF" stroke-width="3" stroke-miterlimit="10" x1="-125" y1="406.4" x2="561" y2="99.4"/>
	
		<line display="inline" fill="none" stroke="#FFFFFF" stroke-width="3" stroke-miterlimit="10" x1="-125" y1="398.4" x2="561" y2="91.4"/>
	
		<line display="inline" fill="none" stroke="#FFFFFF" stroke-width="3" stroke-miterlimit="10" x1="-125" y1="390.3" x2="561" y2="83.3"/>
	
		<line display="inline" fill="none" stroke="#FFFFFF" stroke-width="3" stroke-miterlimit="10" x1="-125" y1="382.3" x2="561" y2="75.3"/>
	
		<line display="inline" fill="none" stroke="#FFFFFF" stroke-width="3" stroke-miterlimit="10" x1="-125" y1="374.3" x2="561" y2="67.3"/>
	
		<line display="inline" fill="none" stroke="#FFFFFF" stroke-width="3" stroke-miterlimit="10" x1="-125" y1="366.2" x2="561" y2="59.2"/>
	
		<line display="inline" fill="none" stroke="#FFFFFF" stroke-width="3" stroke-miterlimit="10" x1="-125" y1="358.2" x2="561" y2="51.2"/>
	
		<line display="inline" fill="none" stroke="#FFFFFF" stroke-width="3" stroke-miterlimit="10" x1="-125" y1="350.1" x2="561" y2="43.1"/>
	
		<line display="inline" fill="none" stroke="#FFFFFF" stroke-width="3" stroke-miterlimit="10" x1="-125" y1="342.1" x2="561" y2="35.1"/>
	
		<line display="inline" fill="none" stroke="#FFFFFF" stroke-width="3" stroke-miterlimit="10" x1="-125" y1="334" x2="561" y2="27"/>
	
		<line display="inline" fill="none" stroke="#FFFFFF" stroke-width="3" stroke-miterlimit="10" x1="-125" y1="326" x2="561" y2="19"/>
	
		<line display="inline" fill="none" stroke="#FFFFFF" stroke-width="3" stroke-miterlimit="10" x1="-125" y1="318" x2="561" y2="11"/>
	
		<line display="inline" fill="none" stroke="#FFFFFF" stroke-width="3" stroke-miterlimit="10" x1="-125" y1="309.9" x2="561" y2="2.9"/>
	
		<line display="inline" fill="none" stroke="#FFFFFF" stroke-width="3" stroke-miterlimit="10" x1="-125" y1="301.9" x2="561" y2="-5.1"/>
	
		<line display="inline" fill="none" stroke="#FFFFFF" stroke-width="3" stroke-miterlimit="10" x1="-125" y1="293.8" x2="561" y2="-13.2"/>
	
		<line display="inline" fill="none" stroke="#FFFFFF" stroke-width="3" stroke-miterlimit="10" x1="-125" y1="285.8" x2="561" y2="-21.2"/>
	
		<line display="inline" fill="none" stroke="#FFFFFF" stroke-width="3" stroke-miterlimit="10" x1="-125" y1="277.7" x2="561" y2="-29.3"/>
	
		<line display="inline" fill="none" stroke="#FFFFFF" stroke-width="3" stroke-miterlimit="10" x1="-125" y1="269.7" x2="561" y2="-37.3"/>
	
		<line display="inline" fill="none" stroke="#FFFFFF" stroke-width="3" stroke-miterlimit="10" x1="-125" y1="261.7" x2="561" y2="-45.3"/>
	
		<line display="inline" fill="none" stroke="#FFFFFF" stroke-width="3" stroke-miterlimit="10" x1="-125" y1="253.6" x2="561" y2="-53.4"/>
	
		<line display="inline" fill="none" stroke="#FFFFFF" stroke-width="3" stroke-miterlimit="10" x1="-125" y1="245.6" x2="561" y2="-61.4"/>
	
		<line display="inline" fill="none" stroke="#FFFFFF" stroke-width="3" stroke-miterlimit="10" x1="-125" y1="237.5" x2="561" y2="-69.5"/>
	
		<line display="inline" fill="none" stroke="#FFFFFF" stroke-width="3" stroke-miterlimit="10" x1="-125" y1="229.5" x2="561" y2="-77.5"/>
	
		<line display="inline" fill="none" stroke="#FFFFFF" stroke-width="3" stroke-miterlimit="10" x1="-125" y1="221.4" x2="561" y2="-85.6"/>
	
		<line display="inline" fill="none" stroke="#FFFFFF" stroke-width="3" stroke-miterlimit="10" x1="-125" y1="213.4" x2="561" y2="-93.6"/>
	
		<line display="inline" fill="none" stroke="#FFFFFF" stroke-width="3" stroke-miterlimit="10" x1="-125" y1="205.3" x2="561" y2="-101.7"/>
	
		<line display="inline" fill="none" stroke="#FFFFFF" stroke-width="3" stroke-miterlimit="10" x1="-125" y1="197.3" x2="561" y2="-109.7"/>
	
		<line display="inline" fill="none" stroke="#FFFFFF" stroke-width="3" stroke-miterlimit="10" x1="-125" y1="189.3" x2="561" y2="-117.7"/>
	
		<line display="inline" fill="none" stroke="#FFFFFF" stroke-width="3" stroke-miterlimit="10" x1="-125" y1="181.2" x2="561" y2="-125.8"/>
	
		<line display="inline" fill="none" stroke="#FFFFFF" stroke-width="3" stroke-miterlimit="10" x1="-125" y1="173.2" x2="561" y2="-133.8"/>
	
		<line display="inline" fill="none" stroke="#FFFFFF" stroke-width="3" stroke-miterlimit="10" x1="-125" y1="165.1" x2="561" y2="-141.9"/>
	
		<line display="inline" fill="none" stroke="#FFFFFF" stroke-width="3" stroke-miterlimit="10" x1="-125" y1="157.1" x2="561" y2="-149.9"/>
	
		<line display="inline" fill="none" stroke="#FFFFFF" stroke-width="3" stroke-miterlimit="10" x1="-125" y1="149" x2="561" y2="-158"/>
	
		<line display="inline" fill="none" stroke="#FFFFFF" stroke-width="3" stroke-miterlimit="10" x1="-125" y1="141" x2="561" y2="-166"/>
</g>
<g display="none">
	<path display="inline" fill="#F2F2F2" d="M80.8,316.5v-55.8c-0.4,0-0.7,0-1.1,0c-11.6,0-20.9,2.3-31.1,7.6l-0.3,0.2l-1.1-1.1
		l0.1-0.3c2.1-7.6,5.9-14.7,11.1-20.3l1.9-2.1c0.1-0.1,0.1-0.2,0.2-0.2c0,0,4.4-5.1,4.5-5.2c0,0,0.3-0.3,0.3-0.4
		c4.4-4.8,9.7-8.7,15.5-11.1v-25.7h-6.2c-5.3,0-8.6,0.5-10.9,1.7l-0.2,0.4h-0.2l-0.2,0.4H63l-0.2,0.4h-0.2l-0.2,0.4h-0.2l-0.2,0.4
		H62l-0.2,0.4h-0.2l-0.2,0.4h-0.2l-0.2,0.4h-0.2l-0.2,0.4h-0.2l-0.2,0.4h-0.2l-0.2,0.4h-0.2l-0.2,0.4h-0.2l-0.2,0.4h-1.3l-0.1-0.3
		c-1-2.6-2.7-8.2-2.7-12.9c0-5.7,1.6-10.4,4.7-13.9c0.1-0.1,0.3-0.4,0.3-0.4c0.1-0.1,0.2-0.2,0.2-0.3l0.1-0.1
		c0.1-0.1,0.2-0.2,0.2-0.3l0.1-0.1c0.1-0.1,0.2-0.2,0.2-0.3l0.1-0.1c0.1-0.1,0.1-0.2,0.2-0.3l0.1-0.1c0.1-0.1,0.2-0.2,0.2-0.3
		l0.1-0.1c0.1-0.1,0.1-0.2,0.2-0.3l0.1-0.1c0.1-0.1,0.2-0.2,0.2-0.3l0.5-0.5c0.1-0.1,0.1-0.2,0.2-0.3l0.1-0.1
		c0.1-0.1,0.1-0.2,0.2-0.3l0.5-0.5c0.1-0.1,0.1-0.2,0.2-0.3l0.5-0.5c0.1-0.1,0.1-0.2,0.2-0.3l0.1-0.1c0.1-0.1,0.2-0.2,0.2-0.3
		l0.4-0.5c0.1-0.1,0.2-0.2,0.2-0.3l0.4-0.5c0.1-0.1,0.2-0.2,0.2-0.3l0.1-0.1c3.2-3.9,7.9-6.2,14-7v-13.9c0-6.9-2.4-9.4-9-9.4
		c-12.7,0-20.3-6.8-20.3-18.3c0-7.7,3.6-12,5.8-14.5l0.2-0.3l0,0l0.3-0.4l0,0l0.3-0.4l0,0l0.4-0.4l0,0l0.3-0.4l0,0l0.4-0.4l0,0
		l0.3-0.4l0,0l0.4-0.4l0,0l0.3-0.4l0,0l0.4-0.4l0,0l0.3-0.4l0,0l0.4-0.4l0,0l0.3-0.4l0,0l0.4-0.4l0,0l0.3-0.4l0,0l0.4-0.4l0,0
		l0.3-0.4l0,0l0.4-0.4l0,0l0.3-0.4l0,0l0.4-0.4l0,0l0.3-0.4l0,0l0.3-0.4l1.3,0.4l0,0.3c0.2,4.8,2.1,6.8,6.4,6.8c2.8,0,6-0.4,9.7-0.9
		c4.9-0.6,10.4-1.3,16.6-1.3c12.5,0,20.5,8.9,20.5,22.7l26.7-27.1l0.3,0.3c11,8.1,25.8,17.5,40.6,25.8l0.3,0.1v0.8
		c0,0-0.3,0.2-0.3,0.2v0.2c0,0-0.3,0.2-0.3,0.2v0.2c0,0-0.3,0.2-0.3,0.2v0.2c0,0-0.3,0.2-0.3,0.2v0.2c0,0-0.3,0.2-0.3,0.2v0.2
		c0,0-0.3,0.2-0.3,0.2v0.2c0,0-0.3,0.2-0.3,0.2v0.2c0,0-0.3,0.2-0.3,0.2v0.2c0,0-0.3,0.2-0.3,0.2v0.2c0,0-0.3,0.2-0.3,0.2v0.2
		c0,0-0.3,0.2-0.3,0.2v0.2c0,0-0.3,0.2-0.3,0.2v0.2c0,0-0.3,0.2-0.3,0.2v0.2c0,0-0.3,0.2-0.3,0.2v0.2l-0.3,0.1c0,0-0.1,0-0.1,0.1
		c-0.4,1.3-0.7,2.7-0.7,4.3v104.6l-0.3,0.1v0.3l-0.3,0.1v0.3l-0.3,0.1v0.3l-0.3,0.1v0.3l-0.3,0.1v0.3l-0.3,0.1v0.3l-0.3,0.1v0.3
		l-0.3,0.1v0.3l-0.3,0.1v0.3l-0.3,0.1v0.3l-0.3,0.1v0.3l-0.3,0.1v0.3l-0.3,0.1v0.3l-0.3,0.1v0.3l-0.3,0.1v0.3l-0.3,0.1v0.3l-0.3,0.1
		v0.3l-0.3,0.1v0.3l-0.3,0.1v0.3l-0.3,0.1v0.3l-0.3,0.1v0.3l-0.3,0.1c-16,6.3-26.2,13.7-36.6,22.7l-0.3,0.3l-0.3-0.3
		c-2.3-2-9.8-6.6-17.2-9.7v27.6L119,294v0.3l-0.3,0.1v0.3l-0.3,0.1v0.3l-0.3,0.1v0.3l-0.3,0.1v0.3l-0.3,0.1v0.3l-0.3,0.1v0.3
		l-0.3,0.1v0.3l-0.3,0.1v0.3l-0.3,0.1v0.3l-0.3,0.1v0.3l-0.3,0.1v0.3l-0.3,0.1v0.3l-0.3,0.1v0.3l-0.3,0.1v0.3l-0.3,0.1v0.3l-0.3,0.1
		v0.3l-0.3,0.1v0.3l-0.3,0.1v0.3l-0.3,0.1v0.3l-0.3,0.1v0.3l-0.3,0.1c-10.4,4.2-20.7,9.1-29.6,14.1l-0.1,0.1H80.8z M119.4,224.8
		c8.5,1.3,16.1,3.9,22.9,7.6V152c-7.1-4.6-16.4-10.1-22.8-13.4L119.4,224.8z"/>
	<path display="inline" fill="#0071BC" d="M65.1,102.8l0.6,0.2c0.2,4.4,1.8,7.3,6.9,7.3c6.5,0,15.4-2.2,26.3-2.2
		c12.1,0,20,8.5,20,22.2v1h0.2l27.1-27.5c12.1,8.9,27.4,18.4,40.6,25.9v0.2c-0.1,0.1-0.2,0.1-0.3,0.2v0.2c-0.1,0.1-0.2,0.1-0.3,0.2
		v0.2c-0.1,0.1-0.2,0.1-0.3,0.2v0.2c-0.1,0.1-0.2,0.1-0.3,0.2v0.2c-0.1,0.1-0.2,0.1-0.3,0.2v0.2c-0.1,0.1-0.2,0.1-0.3,0.2v0.2
		c-0.1,0.1-0.2,0.1-0.3,0.2v0.2c-0.1,0.1-0.2,0.1-0.3,0.2v0.2c-0.1,0.1-0.2,0.1-0.3,0.2v0.2c-0.1,0.1-0.2,0.1-0.3,0.2v0.2
		c-0.1,0.1-0.2,0.1-0.3,0.2v0.2c-0.1,0.1-0.2,0.1-0.3,0.2v0.2c-0.1,0.1-0.2,0.1-0.3,0.2v0.2c-0.1,0.1-0.2,0.1-0.3,0.2v0.2
		c-0.1,0.1-0.2,0.1-0.3,0.2c-0.5,1.4-0.7,2.9-0.7,4.6v104.3c-0.1,0-0.2,0.1-0.3,0.1v0.3c-0.1,0-0.2,0.1-0.3,0.1v0.3
		c-0.1,0-0.2,0.1-0.3,0.1v0.3c-0.1,0-0.2,0.1-0.3,0.1v0.3c-0.1,0-0.2,0.1-0.3,0.1v0.3c-0.1,0-0.2,0.1-0.3,0.1v0.3
		c-0.1,0-0.2,0.1-0.3,0.1v0.3c-0.1,0-0.2,0.1-0.3,0.1v0.3c-0.1,0-0.2,0.1-0.3,0.1v0.3c-0.1,0-0.2,0.1-0.3,0.1v0.3
		c-0.1,0-0.2,0.1-0.3,0.1v0.3c-0.1,0-0.2,0.1-0.3,0.1v0.3c-0.1,0-0.2,0.1-0.3,0.1v0.3c-0.1,0-0.2,0.1-0.3,0.1v0.3
		c-0.1,0-0.2,0.1-0.3,0.1v0.3c-0.1,0-0.2,0.1-0.3,0.1v0.3c-0.1,0-0.2,0.1-0.3,0.1v0.3c-0.1,0-0.2,0.1-0.3,0.1v0.3
		c-0.1,0-0.2,0.1-0.3,0.1v0.3c-0.1,0-0.2,0.1-0.3,0.1v0.3c-0.1,0-0.2,0.1-0.3,0.1v0.3c-15.3,6.1-25.7,13.1-36.8,22.8
		c-2.5-2.2-10.4-7-18-10v28c-0.1,0-0.2,0.1-0.3,0.1v0.3c-0.1,0-0.2,0.1-0.3,0.1v0.3c-0.1,0-0.2,0.1-0.3,0.1v0.3
		c-0.1,0-0.2,0.1-0.3,0.1v0.3c-0.1,0-0.2,0.1-0.3,0.1v0.3c-0.1,0-0.2,0.1-0.3,0.1v0.3c-0.1,0-0.2,0.1-0.3,0.1v0.3
		c-0.1,0-0.2,0.1-0.3,0.1v0.3c-0.1,0-0.2,0.1-0.3,0.1v0.3c-0.1,0-0.2,0.1-0.3,0.1v0.3c-0.1,0-0.2,0.1-0.3,0.1v0.3
		c-0.1,0-0.2,0.1-0.3,0.1v0.3c-0.1,0-0.2,0.1-0.3,0.1v0.3c-0.1,0-0.2,0.1-0.3,0.1v0.3c-0.1,0-0.2,0.1-0.3,0.1v0.3
		c-0.1,0-0.2,0.1-0.3,0.1v0.3c-0.1,0-0.2,0.1-0.3,0.1v0.3c-0.1,0-0.2,0.1-0.3,0.1v0.3c-0.1,0-0.2,0.1-0.3,0.1v0.3
		c-0.1,0-0.2,0.1-0.3,0.1v0.3c-0.1,0-0.2,0.1-0.3,0.1v0.3c-10.1,4-20.4,8.9-29.7,14.1h-0.6v-55.8c-0.5,0-1.1,0-1.6,0
		c-11.3,0-20.7,2.1-31.4,7.7l-0.6-0.6c2.1-7.9,6-14.7,11-20.1c0.1-0.1,0.2-0.3,0.3-0.4c0.1-0.1,0.2-0.3,0.3-0.4
		c0.1-0.1,0.2-0.3,0.3-0.4c0.1-0.1,0.2-0.3,0.3-0.4c0.1-0.1,0.2-0.3,0.3-0.4c0.1-0.1,0.2-0.3,0.3-0.4c0.1-0.1,0.2-0.3,0.3-0.4
		c0.1-0.1,0.2-0.3,0.3-0.4c0.1-0.1,0.2-0.3,0.3-0.4c0.1-0.1,0.2-0.3,0.3-0.4c0.1-0.1,0.2-0.3,0.3-0.4c0.1-0.1,0.2-0.3,0.3-0.4
		c0.1-0.1,0.2-0.3,0.3-0.4c0.1-0.1,0.2-0.3,0.3-0.4c0.1-0.1,0.2-0.3,0.3-0.4c0.1-0.1,0.2-0.3,0.3-0.4c0.1-0.1,0.2-0.3,0.3-0.4
		c0.1-0.1,0.2-0.3,0.3-0.4c0.1-0.1,0.2-0.3,0.3-0.4c0.1-0.1,0.2-0.3,0.3-0.4c4.5-5,9.9-8.7,15.7-11.1v-26.6h-6.7
		c-5.6,0-9,0.6-11.3,1.9c0,0.1-0.1,0.2-0.1,0.2h-0.1c-0.1,0.1-0.1,0.3-0.2,0.4h-0.1c-0.1,0.1-0.1,0.3-0.2,0.4h-0.1
		c-0.1,0.1-0.1,0.3-0.2,0.4H62c-0.1,0.1-0.1,0.3-0.2,0.4h-0.1c-0.1,0.1-0.1,0.3-0.2,0.4h-0.1c-0.1,0.1-0.1,0.3-0.2,0.4H61
		c-0.1,0.1-0.1,0.3-0.2,0.4h-0.1c-0.1,0.1-0.1,0.3-0.2,0.4h-0.1c-0.1,0.1-0.1,0.3-0.2,0.4h-0.1c-0.1,0.1-0.1,0.3-0.2,0.4h-0.1
		c-0.1,0.1-0.1,0.3-0.2,0.4h-0.1c-0.1,0.1-0.1,0.3-0.2,0.4h-0.6c-1-2.6-2.6-8.1-2.6-12.7c0-5.4,1.5-10.1,4.6-13.6
		c0.1-0.1,0.2-0.3,0.3-0.4c0.1-0.1,0.2-0.3,0.3-0.4c0.1-0.1,0.2-0.3,0.3-0.4c0.1-0.1,0.2-0.3,0.3-0.4c0.1-0.1,0.2-0.3,0.3-0.4
		c0.1-0.1,0.2-0.3,0.3-0.4c0.1-0.1,0.2-0.3,0.3-0.4c0.1-0.1,0.2-0.3,0.3-0.4c0.1-0.1,0.2-0.3,0.3-0.4c0.1-0.1,0.2-0.3,0.3-0.4
		c0.1-0.1,0.2-0.3,0.3-0.4c0.1-0.1,0.2-0.3,0.3-0.4c0.1-0.1,0.2-0.3,0.3-0.4c0.1-0.1,0.2-0.3,0.3-0.4c0.1-0.1,0.2-0.3,0.3-0.4
		c0.1-0.1,0.2-0.3,0.3-0.4c0.1-0.1,0.2-0.3,0.3-0.4c0.1-0.1,0.2-0.3,0.3-0.4c0.1-0.1,0.2-0.3,0.3-0.4c0.1-0.1,0.2-0.3,0.3-0.4
		c3-3.7,7.8-6.2,14.2-6.9v-14.4c0-7.3-2.8-9.9-9.5-9.9c-12.1,0-19.8-6.5-19.8-17.8c0-7.3,3.2-11.3,5.7-14.1l0,0
		c0.1-0.1,0.2-0.3,0.3-0.4l0,0c0.1-0.1,0.2-0.3,0.3-0.4l0,0c0.1-0.1,0.2-0.3,0.3-0.4l0,0c0.1-0.1,0.2-0.3,0.3-0.4l0,0
		c0.1-0.1,0.2-0.3,0.3-0.4l0,0c0.1-0.1,0.2-0.3,0.3-0.4l0,0c0.1-0.1,0.2-0.3,0.3-0.4l0,0c0.1-0.1,0.2-0.3,0.3-0.4l0,0
		c0.1-0.1,0.2-0.3,0.3-0.4l0,0c0.1-0.1,0.2-0.3,0.3-0.4l0,0c0.1-0.1,0.2-0.3,0.3-0.4l0,0c0.1-0.1,0.2-0.3,0.3-0.4l0,0
		c0.1-0.1,0.2-0.3,0.3-0.4l0,0c0.1-0.1,0.2-0.3,0.3-0.4l0,0c0.1-0.1,0.2-0.3,0.3-0.4l0,0c0.1-0.1,0.2-0.3,0.3-0.4l0,0
		c0.1-0.1,0.2-0.3,0.3-0.4l0,0c0.1-0.1,0.2-0.3,0.3-0.4l0,0c0.1-0.1,0.2-0.3,0.3-0.4l0,0c0.1-0.1,0.2-0.3,0.3-0.4l0,0
		C64.9,103,65,102.9,65.1,102.8 M142.7,233.3v-81.6c-7.5-4.9-17.2-10.5-23.4-13.7l-0.4,0.4v86.8C127,226.4,135.2,229,142.7,233.3
		 M64.8,101.6l-0.4,0.5l0,0l-0.3,0.4l0,0l-0.3,0.4l0,0l-0.3,0.4l0,0l-0.3,0.4l0,0l-0.3,0.4l0,0l-0.3,0.4l0,0l-0.3,0.4l0,0l-0.3,0.4
		l0,0l-0.3,0.4l0,0l-0.3,0.4l0,0l-0.3,0.4l0,0l-0.3,0.4l0,0l-0.3,0.4l0,0l-0.3,0.4l0,0l-0.3,0.4l0,0l-0.3,0.4l0,0l-0.3,0.4l0,0
		l-0.3,0.4l0,0l-0.3,0.4l0,0l-0.3,0.4l0,0l-0.3,0.4c-2.9,3.3-5.9,7.5-5.9,14.8c0,11.6,8,18.8,20.8,18.8c6.3,0,8.5,2.3,8.5,8.9v13.5
		c-6.1,0.9-10.8,3.3-13.9,7.2l-0.1,0.1c-0.1,0.1-0.2,0.2-0.3,0.3l-0.1,0.1c-0.1,0.1-0.2,0.2-0.3,0.3l-0.1,0.1
		c-0.1,0.1-0.2,0.2-0.3,0.3l-0.1,0.1c-0.1,0.1-0.2,0.2-0.3,0.3l-0.1,0.1c-0.1,0.1-0.2,0.2-0.3,0.3l-0.1,0.1
		c-0.1,0.1-0.2,0.2-0.3,0.3l-0.1,0.1c-0.1,0.1-0.2,0.2-0.3,0.3l-0.1,0.1c-0.1,0.1-0.2,0.2-0.3,0.3l-0.1,0.1
		c-0.1,0.1-0.2,0.2-0.3,0.3l-0.1,0.1c-0.1,0.1-0.2,0.2-0.3,0.3l-0.1,0.1c-0.1,0.1-0.2,0.2-0.3,0.3l-0.1,0.1
		c-0.1,0.1-0.2,0.2-0.3,0.3l-0.1,0.1c-0.1,0.1-0.2,0.2-0.3,0.3l-0.1,0.1c-0.1,0.1-0.2,0.2-0.3,0.3l-0.1,0.1
		c-0.1,0.1-0.2,0.2-0.3,0.3l-0.1,0.1c-0.1,0.1-0.2,0.2-0.3,0.3l-0.1,0.1c-0.1,0.1-0.2,0.2-0.3,0.3l-0.1,0.1
		c-0.1,0.1-0.2,0.2-0.3,0.3l-0.1,0.1c-0.1,0.1-0.2,0.2-0.3,0.3l-0.1,0.1c-0.1,0.1-0.2,0.2-0.3,0.3c-3.1,3.6-4.8,8.5-4.8,14.2
		c0,4.8,1.7,10.5,2.7,13.1l0.2,0.6h0.7H59h0.6l0.2-0.4H60l0.2-0.4h0.2l0.2-0.4h0.2l0.2-0.4h0.2l0.2-0.4h0.2l0.2-0.4h0.2l0.2-0.4h0.2
		l0.2-0.4h0.2l0.2-0.4h0.2l0.2-0.4h0.2l0.2-0.4h0.2l0.2-0.4h0.2l0.2-0.5c2.2-1.1,5.5-1.6,10.5-1.6h5.7v24.9
		c-5.7,2.4-11,6.3-15.4,11.1c-0.1,0.1-0.1,0.2-0.2,0.2c0,0.1-0.1,0.1-0.1,0.2c-0.1,0.1-0.1,0.2-0.2,0.2c0,0.1-0.1,0.1-0.1,0.2
		c-0.1,0.1-0.1,0.2-0.2,0.2c0,0.1-0.1,0.1-0.1,0.2c-0.1,0.1-0.1,0.2-0.2,0.2c0,0.1-0.1,0.1-0.1,0.2c-0.1,0.1-0.1,0.2-0.2,0.2
		c0,0.1-0.1,0.1-0.1,0.2c-0.1,0.1-0.1,0.2-0.2,0.2c0,0.1-0.1,0.1-0.1,0.2c-0.1,0.1-0.1,0.2-0.2,0.2c0,0.1-0.1,0.1-0.1,0.2
		c-0.1,0.1-0.1,0.2-0.2,0.2c0,0.1-0.1,0.1-0.1,0.2c-0.1,0.1-0.1,0.2-0.2,0.2c0,0.1-0.1,0.1-0.1,0.2c-0.1,0.1-0.1,0.2-0.2,0.2
		c0,0.1-0.1,0.1-0.1,0.2c-0.1,0.1-0.1,0.2-0.2,0.2c0,0.1-0.1,0.1-0.1,0.2c-0.1,0.1-0.1,0.2-0.2,0.2c0,0.1-0.1,0.1-0.1,0.2
		c-0.1,0.1-0.1,0.2-0.2,0.2c0,0.1-0.1,0.1-0.1,0.2c-0.1,0.1-0.1,0.2-0.2,0.2c0,0.1-0.1,0.1-0.1,0.2c-0.1,0.1-0.1,0.2-0.2,0.2
		c0,0.1-0.1,0.1-0.1,0.2c-0.1,0.1-0.1,0.2-0.2,0.2c0,0.1-0.1,0.1-0.1,0.2c-0.1,0.1-0.1,0.2-0.2,0.2c0,0.1-0.1,0.1-0.1,0.2
		c-0.1,0.1-0.1,0.2-0.2,0.2c0,0.1-0.1,0.1-0.1,0.2c-0.1,0.1-0.1,0.2-0.2,0.2c0,0.1-0.1,0.1-0.1,0.2c-0.1,0.1-0.1,0.2-0.2,0.2
		c0,0.1-0.1,0.1-0.1,0.2c-5.2,5.7-9.1,12.8-11.2,20.5l-0.1,0.6L47,268l0.6,0.6l0.5,0.5l0.7-0.3c10.2-5.3,19.4-7.6,30.9-7.6
		c0.2,0,0.4,0,0.6,0V316v1h1h0.6h0.3l0.2-0.1c8.9-5,19.2-9.9,29.6-14.1l0.6-0.3v-0.3l0.3-0.1v-0.3l0.3-0.1v-0.3l0.3-0.1v-0.3
		l0.3-0.1v-0.3l0.3-0.1v-0.3l0.3-0.1v-0.3l0.3-0.1v-0.3l0.3-0.1v-0.3l0.3-0.1v-0.3l0.3-0.1v-0.3l0.3-0.1v-0.3l0.3-0.1v-0.3l0.3-0.1
		v-0.3l0.3-0.1v-0.3l0.3-0.1v-0.3l0.3-0.1v-0.3l0.3-0.1v-0.3l0.3-0.1v-0.3l0.3-0.1v-0.3l0.3-0.1v-0.3l0.3-0.1v-0.7V267
		c7.1,3,14.1,7.3,16.3,9.3l0.7,0.6l0.7-0.6c10.4-9,20.5-16.4,36.5-22.7l0.6-0.2v-0.3l0.3-0.1v-0.3l0.3-0.1v-0.3l0.3-0.1V252l0.3-0.1
		v-0.3l0.3-0.1v-0.3l0.3-0.1v-0.3l0.3-0.1v-0.3l0.3-0.1V250l0.3-0.1v-0.3l0.3-0.1v-0.3l0.3-0.1v-0.3l0.3-0.1v-0.3l0.3-0.1V248
		l0.3-0.1v-0.3l0.3-0.1v-0.3l0.3-0.1v-0.3l0.3-0.1v-0.3l0.3-0.1V246l0.3-0.1v-0.3l0.3-0.1v-0.3l0.3-0.1v-0.7V140.1
		c0-1.4,0.2-2.7,0.6-3.9l0.4-0.2v-0.2l0.3-0.2v-0.2l0.3-0.2V135l0.3-0.2v-0.2l0.3-0.2v-0.2l0.3-0.2v-0.2l0.3-0.2v-0.2l0.3-0.2V133
		l0.3-0.2v-0.2l0.3-0.2v-0.2l0.3-0.2v-0.2l0.3-0.2v-0.2l0.3-0.2V131l0.3-0.2v-0.2l0.3-0.2v-0.6v-0.2V129l-0.5-0.3
		c-14.8-8.3-29.5-17.7-40.5-25.8l-0.7-0.5l-0.6,0.6l-25.6,26c-0.5-13.4-8.6-22-21-22c-6.2,0-11.7,0.7-16.6,1.3
		c-3.7,0.5-6.9,0.9-9.7,0.9c-4,0-5.7-1.8-5.9-6.3l0-0.7L66,102l-0.6-0.2L64.8,101.6L64.8,101.6z M119.9,224.4v-85
		c6.3,3.3,15,8.4,21.9,12.8v79.3C135.2,228.1,127.9,225.7,119.9,224.4L119.9,224.4z"/>
</g>
<g display="none">
	<line display="inline" fill="none" stroke="#FFFFFF" stroke-miterlimit="10" x1="-125" y1="511" x2="561" y2="204"/>
	<line display="inline" fill="none" stroke="#FFFFFF" stroke-miterlimit="10" x1="-125" y1="507" x2="561" y2="200"/>
	<line display="inline" fill="none" stroke="#FFFFFF" stroke-miterlimit="10" x1="-125" y1="503" x2="561" y2="196"/>
	<line display="inline" fill="none" stroke="#FFFFFF" stroke-miterlimit="10" x1="-125" y1="499.1" x2="561" y2="192.1"/>
	<line display="inline" fill="none" stroke="#FFFFFF" stroke-miterlimit="10" x1="-125" y1="495.1" x2="561" y2="188.1"/>
	<line display="inline" fill="none" stroke="#FFFFFF" stroke-miterlimit="10" x1="-125" y1="491.1" x2="561" y2="184.1"/>
	<line display="inline" fill="none" stroke="#FFFFFF" stroke-miterlimit="10" x1="-125" y1="487.1" x2="561" y2="180.1"/>
	<line display="inline" fill="none" stroke="#FFFFFF" stroke-miterlimit="10" x1="-125" y1="483.2" x2="561" y2="176.2"/>
	<line display="inline" fill="none" stroke="#FFFFFF" stroke-miterlimit="10" x1="-125" y1="479.2" x2="561" y2="172.2"/>
	<line display="inline" fill="none" stroke="#FFFFFF" stroke-miterlimit="10" x1="-125" y1="475.2" x2="561" y2="168.2"/>
	<line display="inline" fill="none" stroke="#FFFFFF" stroke-miterlimit="10" x1="-125" y1="471.2" x2="561" y2="164.2"/>
	<line display="inline" fill="none" stroke="#FFFFFF" stroke-miterlimit="10" x1="-125" y1="467.2" x2="561" y2="160.2"/>
	<line display="inline" fill="none" stroke="#FFFFFF" stroke-miterlimit="10" x1="-125" y1="463.3" x2="561" y2="156.3"/>
	<line display="inline" fill="none" stroke="#FFFFFF" stroke-miterlimit="10" x1="-125" y1="459.3" x2="561" y2="152.3"/>
	<line display="inline" fill="none" stroke="#FFFFFF" stroke-miterlimit="10" x1="-125" y1="455.3" x2="561" y2="148.3"/>
	<line display="inline" fill="none" stroke="#FFFFFF" stroke-miterlimit="10" x1="-125" y1="451.3" x2="561" y2="144.3"/>
	<line display="inline" fill="none" stroke="#FFFFFF" stroke-miterlimit="10" x1="-125" y1="447.3" x2="561" y2="140.3"/>
	<line display="inline" fill="none" stroke="#FFFFFF" stroke-miterlimit="10" x1="-125" y1="443.4" x2="561" y2="136.4"/>
	<line display="inline" fill="none" stroke="#FFFFFF" stroke-miterlimit="10" x1="-125" y1="439.4" x2="561" y2="132.4"/>
	<line display="inline" fill="none" stroke="#FFFFFF" stroke-miterlimit="10" x1="-125" y1="435.4" x2="561" y2="128.4"/>
	<line display="inline" fill="none" stroke="#FFFFFF" stroke-miterlimit="10" x1="-125" y1="431.4" x2="561" y2="124.4"/>
	<line display="inline" fill="none" stroke="#FFFFFF" stroke-miterlimit="10" x1="-125" y1="427.5" x2="561" y2="120.5"/>
	<line display="inline" fill="none" stroke="#FFFFFF" stroke-miterlimit="10" x1="-125" y1="423.5" x2="561" y2="116.5"/>
	<line display="inline" fill="none" stroke="#FFFFFF" stroke-miterlimit="10" x1="-125" y1="419.5" x2="561" y2="112.5"/>
	<line display="inline" fill="none" stroke="#FFFFFF" stroke-miterlimit="10" x1="-125" y1="415.5" x2="561" y2="108.5"/>
	<line display="inline" fill="none" stroke="#FFFFFF" stroke-miterlimit="10" x1="-125" y1="411.5" x2="561" y2="104.5"/>
	<line display="inline" fill="none" stroke="#FFFFFF" stroke-miterlimit="10" x1="-125" y1="407.6" x2="561" y2="100.6"/>
	<line display="inline" fill="none" stroke="#FFFFFF" stroke-miterlimit="10" x1="-125" y1="403.6" x2="561" y2="96.6"/>
	<line display="inline" fill="none" stroke="#FFFFFF" stroke-miterlimit="10" x1="-125" y1="399.6" x2="561" y2="92.6"/>
	<line display="inline" fill="none" stroke="#FFFFFF" stroke-miterlimit="10" x1="-125" y1="395.6" x2="561" y2="88.6"/>
	<line display="inline" fill="none" stroke="#FFFFFF" stroke-miterlimit="10" x1="-125" y1="391.6" x2="561" y2="84.6"/>
	<line display="inline" fill="none" stroke="#FFFFFF" stroke-miterlimit="10" x1="-125" y1="387.7" x2="561" y2="80.7"/>
	<line display="inline" fill="none" stroke="#FFFFFF" stroke-miterlimit="10" x1="-125" y1="383.7" x2="561" y2="76.7"/>
	<line display="inline" fill="none" stroke="#FFFFFF" stroke-miterlimit="10" x1="-125" y1="379.7" x2="561" y2="72.7"/>
	<line display="inline" fill="none" stroke="#FFFFFF" stroke-miterlimit="10" x1="-125" y1="375.7" x2="561" y2="68.7"/>
	<line display="inline" fill="none" stroke="#FFFFFF" stroke-miterlimit="10" x1="-125" y1="371.8" x2="561" y2="64.8"/>
	<line display="inline" fill="none" stroke="#FFFFFF" stroke-miterlimit="10" x1="-125" y1="367.8" x2="561" y2="60.8"/>
	<line display="inline" fill="none" stroke="#FFFFFF" stroke-miterlimit="10" x1="-125" y1="363.8" x2="561" y2="56.8"/>
	<line display="inline" fill="none" stroke="#FFFFFF" stroke-miterlimit="10" x1="-125" y1="359.8" x2="561" y2="52.8"/>
	<line display="inline" fill="none" stroke="#FFFFFF" stroke-miterlimit="10" x1="-125" y1="355.8" x2="561" y2="48.8"/>
	<line display="inline" fill="none" stroke="#FFFFFF" stroke-miterlimit="10" x1="-125" y1="351.9" x2="561" y2="44.9"/>
	<line display="inline" fill="none" stroke="#FFFFFF" stroke-miterlimit="10" x1="-125" y1="347.9" x2="561" y2="40.9"/>
	<line display="inline" fill="none" stroke="#FFFFFF" stroke-miterlimit="10" x1="-125" y1="343.9" x2="561" y2="36.9"/>
	<line display="inline" fill="none" stroke="#FFFFFF" stroke-miterlimit="10" x1="-125" y1="339.9" x2="561" y2="32.9"/>
	<line display="inline" fill="none" stroke="#FFFFFF" stroke-miterlimit="10" x1="-125" y1="335.9" x2="561" y2="28.9"/>
	<line display="inline" fill="none" stroke="#FFFFFF" stroke-miterlimit="10" x1="-125" y1="332" x2="561" y2="25"/>
	<line display="inline" fill="none" stroke="#FFFFFF" stroke-miterlimit="10" x1="-125" y1="328" x2="561" y2="21"/>
	<line display="inline" fill="none" stroke="#FFFFFF" stroke-miterlimit="10" x1="-125" y1="324" x2="561" y2="17"/>
	<line display="inline" fill="none" stroke="#FFFFFF" stroke-miterlimit="10" x1="-125" y1="320" x2="561" y2="13"/>
	<line display="inline" fill="none" stroke="#FFFFFF" stroke-miterlimit="10" x1="-125" y1="316.1" x2="561" y2="9.1"/>
	<line display="inline" fill="none" stroke="#FFFFFF" stroke-miterlimit="10" x1="-125" y1="312.1" x2="561" y2="5.1"/>
	<line display="inline" fill="none" stroke="#FFFFFF" stroke-miterlimit="10" x1="-125" y1="308.1" x2="561" y2="1.1"/>
	<line display="inline" fill="none" stroke="#FFFFFF" stroke-miterlimit="10" x1="-125" y1="304.1" x2="561" y2="-2.9"/>
	<line display="inline" fill="none" stroke="#FFFFFF" stroke-miterlimit="10" x1="-125" y1="300.1" x2="561" y2="-6.9"/>
	<line display="inline" fill="none" stroke="#FFFFFF" stroke-miterlimit="10" x1="-125" y1="296.2" x2="561" y2="-10.8"/>
	<line display="inline" fill="none" stroke="#FFFFFF" stroke-miterlimit="10" x1="-125" y1="292.2" x2="561" y2="-14.8"/>
	<line display="inline" fill="none" stroke="#FFFFFF" stroke-miterlimit="10" x1="-125" y1="288.2" x2="561" y2="-18.8"/>
	<line display="inline" fill="none" stroke="#FFFFFF" stroke-miterlimit="10" x1="-125" y1="284.2" x2="561" y2="-22.8"/>
	<line display="inline" fill="none" stroke="#FFFFFF" stroke-miterlimit="10" x1="-125" y1="280.2" x2="561" y2="-26.8"/>
	<line display="inline" fill="none" stroke="#FFFFFF" stroke-miterlimit="10" x1="-125" y1="276.3" x2="561" y2="-30.7"/>
	<line display="inline" fill="none" stroke="#FFFFFF" stroke-miterlimit="10" x1="-125" y1="272.3" x2="561" y2="-34.7"/>
	<line display="inline" fill="none" stroke="#FFFFFF" stroke-miterlimit="10" x1="-125" y1="268.3" x2="561" y2="-38.7"/>
	<line display="inline" fill="none" stroke="#FFFFFF" stroke-miterlimit="10" x1="-125" y1="264.3" x2="561" y2="-42.7"/>
	<line display="inline" fill="none" stroke="#FFFFFF" stroke-miterlimit="10" x1="-125" y1="260.4" x2="561" y2="-46.6"/>
	<line display="inline" fill="none" stroke="#FFFFFF" stroke-miterlimit="10" x1="-125" y1="256.4" x2="561" y2="-50.6"/>
	<line display="inline" fill="none" stroke="#FFFFFF" stroke-miterlimit="10" x1="-125" y1="252.4" x2="561" y2="-54.6"/>
	<line display="inline" fill="none" stroke="#FFFFFF" stroke-miterlimit="10" x1="-125" y1="248.4" x2="561" y2="-58.6"/>
	<line display="inline" fill="none" stroke="#FFFFFF" stroke-miterlimit="10" x1="-125" y1="244.4" x2="561" y2="-62.6"/>
	<line display="inline" fill="none" stroke="#FFFFFF" stroke-miterlimit="10" x1="-125" y1="240.5" x2="561" y2="-66.5"/>
	<line display="inline" fill="none" stroke="#FFFFFF" stroke-miterlimit="10" x1="-125" y1="236.5" x2="561" y2="-70.5"/>
	<line display="inline" fill="none" stroke="#FFFFFF" stroke-miterlimit="10" x1="-125" y1="232.5" x2="561" y2="-74.5"/>
	<line display="inline" fill="none" stroke="#FFFFFF" stroke-miterlimit="10" x1="-125" y1="228.5" x2="561" y2="-78.5"/>
	<line display="inline" fill="none" stroke="#FFFFFF" stroke-miterlimit="10" x1="-125" y1="224.5" x2="561" y2="-82.5"/>
	<line display="inline" fill="none" stroke="#FFFFFF" stroke-miterlimit="10" x1="-125" y1="220.6" x2="561" y2="-86.4"/>
	<line display="inline" fill="none" stroke="#FFFFFF" stroke-miterlimit="10" x1="-125" y1="216.6" x2="561" y2="-90.4"/>
	<line display="inline" fill="none" stroke="#FFFFFF" stroke-miterlimit="10" x1="-125" y1="212.6" x2="561" y2="-94.4"/>
	<line display="inline" fill="none" stroke="#FFFFFF" stroke-miterlimit="10" x1="-125" y1="208.6" x2="561" y2="-98.4"/>
	<line display="inline" fill="none" stroke="#FFFFFF" stroke-miterlimit="10" x1="-125" y1="204.7" x2="561" y2="-102.3"/>
	<line display="inline" fill="none" stroke="#FFFFFF" stroke-miterlimit="10" x1="-125" y1="200.7" x2="561" y2="-106.3"/>
	<line display="inline" fill="none" stroke="#FFFFFF" stroke-miterlimit="10" x1="-125" y1="196.7" x2="561" y2="-110.3"/>
	<line display="inline" fill="none" stroke="#FFFFFF" stroke-miterlimit="10" x1="-125" y1="192.7" x2="561" y2="-114.3"/>
	<line display="inline" fill="none" stroke="#FFFFFF" stroke-miterlimit="10" x1="-125" y1="188.7" x2="561" y2="-118.3"/>
	<line display="inline" fill="none" stroke="#FFFFFF" stroke-miterlimit="10" x1="-125" y1="184.8" x2="561" y2="-122.2"/>
	<line display="inline" fill="none" stroke="#FFFFFF" stroke-miterlimit="10" x1="-125" y1="180.8" x2="561" y2="-126.2"/>
	<line display="inline" fill="none" stroke="#FFFFFF" stroke-miterlimit="10" x1="-125" y1="176.8" x2="561" y2="-130.2"/>
	<line display="inline" fill="none" stroke="#FFFFFF" stroke-miterlimit="10" x1="-125" y1="172.8" x2="561" y2="-134.2"/>
	<line display="inline" fill="none" stroke="#FFFFFF" stroke-miterlimit="10" x1="-125" y1="168.8" x2="561" y2="-138.2"/>
	<line display="inline" fill="none" stroke="#FFFFFF" stroke-miterlimit="10" x1="-125" y1="164.9" x2="561" y2="-142.1"/>
	<line display="inline" fill="none" stroke="#FFFFFF" stroke-miterlimit="10" x1="-125" y1="160.9" x2="561" y2="-146.1"/>
	<line display="inline" fill="none" stroke="#FFFFFF" stroke-miterlimit="10" x1="-125" y1="156.9" x2="561" y2="-150.1"/>
	<line display="inline" fill="none" stroke="#FFFFFF" stroke-miterlimit="10" x1="-125" y1="152.9" x2="561" y2="-154.1"/>
	<line display="inline" fill="none" stroke="#FFFFFF" stroke-miterlimit="10" x1="-125" y1="149" x2="561" y2="-158"/>
	<line display="inline" fill="none" stroke="#FFFFFF" stroke-miterlimit="10" x1="-125" y1="145" x2="561" y2="-162"/>
	<line display="inline" fill="none" stroke="#FFFFFF" stroke-miterlimit="10" x1="-125" y1="141" x2="561" y2="-166"/>
</g>
<line display="none" fill="none" stroke="#0071BC" stroke-miterlimit="10" x1="88.5" y1="307.7" x2="81.4" y2="317.9"/>
<line display="none" fill="none" stroke="#0071BC" stroke-miterlimit="10" x1="144.1" y1="267.2" x2="136" y2="278"/>
<line display="none" fill="none" stroke="#0071BC" stroke-miterlimit="10" x1="88" y1="252" x2="80.8" y2="262.1"/>
<line display="none" fill="none" stroke="#0071BC" stroke-miterlimit="10" x1="80" y1="204" x2="88" y2="194"/>
<line display="none" fill="none" stroke="#0071BC" stroke-miterlimit="10" x1="58" y1="210.4" x2="66" y2="201"/>
<line display="none" fill="none" stroke="#0071BC" stroke-miterlimit="10" x1="55" y1="260" x2="47" y2="270"/>
<line display="none" fill="none" stroke="#0071BC" stroke-miterlimit="10" x1="142" y1="153" x2="149" y2="144"/>
<g>
	<path fill="#F2F2F2" d="M349.3,222.5c-9.2,24.5-30.4,48.3-68.1,48.3c-47.9,0-84.7-32.1-84.7-80.6c0-49.1,39.4-77.7,66.2-86.6
		l1.9,1.5c-15.7,14-33.2,35.7-33.2,71.9c0,21.2,5.1,37.5,14.7,48.7l8.7-4.5c6.5-3.3,8.3-7.4,8.3-17.4v-74.5l-8.7,4.7l-2.3-4.7
		c20.7-10.7,44.5-24.7,60-36.2c6,10.4,13.7,15.7,22.3,15.7c3,0,7-0.1,10.2-1.1l1.5,1.5c-5.5,15.1-16.3,22.1-24.9,22.1
		c-3.3,0-6.3-0.4-9.1-1.3v111.1c17.6-4.2,28.6-13.2,35.5-20.4L349.3,222.5z M308.4,242.1V128.7c-4.8-2.3-9.3-6-13.8-11.5h-0.4v74.3
		c0,10.6-1.3,16.3-11.3,21.1l-33.8,16.4c10,9.7,24.2,14.7,41.7,14.7C297.2,243.6,303.1,243.1,308.4,242.1z"/>
</g>
<g>
	<path fill="#F2F2F2" d="M150,233.3v-94.6c-7.5-4.9-17.2-10.5-23.4-13.7l-7.7,7.7v87.9c10.7,1.6,21.6,5.5,30.7,12.7H150z
		 M186.8,125.2c-4,2.2-5.9,5.7-5.9,10.3v104.3c-15.3,6.1-25.7,13.1-36.8,22.8c-3.3-3-16.4-10.5-25.3-12.3v38.6
		c-10.1,4-20.4,8.9-29.7,14.1h-0.6v-55.8c-12-0.2-21.8,1.8-32.9,7.7l-0.6-0.6c4.9-18.1,18.9-30.2,33.5-32.9v-32.7h-6.7
		c-10.7,0-13.3,2.2-15.6,6.9h-0.6c-1-2.6-2.6-8.1-2.6-12.7c0-12.1,7.5-20.4,22.8-20.4h2.8v-22.4c0-7.3-2.8-9.9-9.5-9.9
		c-12.1,0-19.8-6.5-19.8-17.8c0-7.3,3.2-11.3,5.7-14.1l0.6,0.2c0.2,4.4,1.8,7.3,6.9,7.3c6.5,0,15.4-2.2,26.3-2.2
		c12.1,0,20,8.5,20,22.2v1h0.2l27.1-27.5c12.1,8.9,27.4,18.4,40.6,25.9V125.2z"/>
</g>
</svg>
